<svg width="114" height="32" viewBox="0 0 114 32" fill="none" xmlns="http://www.w3.org/2000/svg">
<g clip-path="url(#clip0_5096_41)">
<path d="M18.4528 7.91846H14.226L8.58594 21.7189H12.2046L16.3394 11.0597L20.4741 21.7189H24.0895L18.4528 7.91846Z" fill="#FFB500"/>
<path d="M14.8114 31.8586L14.7818 31.8553H14.7785H14.7753H14.772H14.7687C12.6422 31.6428 10.6011 31.0022 8.75393 30.0019C5.19438 28.0669 2.37435 24.7851 1.14511 20.6142C-0.0874254 16.4401 0.500903 12.1646 2.44337 8.62791C3.44254 6.80725 4.80326 5.17944 6.45978 3.86215L6.49265 3.836L6.49593 3.83273C8.94785 1.83556 11.9486 0.505199 15.1992 0.0868053C15.2157 0.0835366 15.3241 0.0737305 15.3406 0.0737305L16.7046 3.41107C16.6849 3.41107 16.5731 3.42088 16.5534 3.42415C13.6545 3.60392 10.9659 4.68586 8.79994 6.41827C8.76708 6.44442 8.73092 6.47384 8.69806 6.49999C8.64547 6.54248 8.58959 6.58825 8.537 6.63401L8.53372 6.63728L8.53043 6.64054L8.52714 6.64381L8.52386 6.64708L8.52057 6.65035C8.50742 6.66343 8.49099 6.67323 8.47784 6.68304C7.2486 7.6898 6.23957 8.91556 5.4869 10.2819C3.96842 13.0439 3.51156 16.3845 4.47458 19.6467C5.4376 22.9089 7.63644 25.4748 10.4137 26.9817C11.8862 27.7825 13.5197 28.2859 15.219 28.4395C18.9166 28.7435 22.4038 27.5602 25.0726 25.3833C25.2008 25.2787 25.329 25.1708 25.4572 25.0597L26.8212 28.4003C23.5081 30.9237 19.2781 32.2606 14.8114 31.8651V31.8586Z" fill="#FFB500"/>
<path d="M49.5027 5.55857H46.8438V21.0097H49.5027V5.55857ZM53.1905 8.64749C54.1502 8.64749 54.8667 7.95779 54.8667 6.98045C54.8667 6.02599 54.1502 5.31342 53.1905 5.31342C52.2307 5.31342 51.4748 6.02599 51.4748 6.98045C51.4748 7.95779 52.211 8.64749 53.1905 8.64749ZM54.4986 9.96804H51.8199V21.0064H54.4986V9.96804ZM62.4788 7.50671C62.9685 7.50671 63.5634 7.65054 64.2569 7.95453L65.0951 5.88217C64.1123 5.37552 63.1132 5.13037 62.1107 5.13037C59.4747 5.13037 57.6966 6.67647 57.6966 9.4614V9.96804H55.9382V12.2038H57.6966V21.0064H60.3556V12.2038H63.8297V9.96804H60.3556V9.52023C60.3556 8.21929 61.1115 7.50671 62.4821 7.50671H62.4788Z" fill="black"/>
<path d="M42.0767 15.4791C42.0767 16.4335 41.7711 17.2278 41.1565 17.8783C40.5418 18.5288 39.592 18.8556 38.6322 18.8556C37.6725 18.8556 36.8903 18.5353 36.2822 17.8783C35.684 17.2344 35.3816 16.4335 35.3816 15.4791C35.3816 14.5442 35.684 13.7467 36.2822 13.0995C36.8903 12.4424 37.6725 12.1221 38.6322 12.1221C39.592 12.1221 40.5451 12.4457 41.1565 13.0995C41.7711 13.7499 42.0767 14.5442 42.0767 15.4791ZM42.0143 10.9944C41.0217 10.1445 39.8056 9.70654 38.3956 9.70654C36.8212 9.70654 35.3192 10.2557 34.2773 11.3344C33.2354 12.413 32.7227 13.7957 32.7227 15.4398C32.7227 17.0873 33.2354 18.4895 34.2773 19.6074C35.3192 20.7253 36.8015 21.2745 38.3956 21.2745C39.8483 21.2745 40.9231 20.8561 42.0143 19.9899V21.0097H44.5484V9.97131H42.0143V10.9977V10.9944Z" fill="black"/>
<path d="M72.2101 21.2549C73.3342 21.2549 74.2742 20.9281 74.9907 20.3005C75.7072 19.6696 76.0753 18.8982 76.0753 17.983C76.0753 16.803 75.4607 15.8877 74.215 15.2373C73.9094 15.0738 73.4163 14.8516 72.7853 14.5868L71.5396 14.018C70.948 13.7337 70.639 13.2859 70.639 12.6975C70.639 11.9457 71.2109 11.3148 72.2528 11.3148C73.2323 11.3148 74.0112 11.743 74.5634 12.5962L75.7894 11.5175C75.1353 10.38 73.7647 9.76873 72.3744 9.76873C71.3325 9.76873 70.4747 10.0531 69.8404 10.6219C69.206 11.1906 68.9003 11.9032 68.9003 12.7759C68.9003 13.9134 69.4525 14.7895 70.5371 15.3778C70.7837 15.5216 71.2307 15.7243 71.9077 16.0087C72.5815 16.2931 73.0121 16.4957 73.2356 16.6199C73.9324 17.0056 74.2775 17.4927 74.2775 18.0843C74.2775 18.9178 73.4788 19.65 72.2758 19.65C71.2734 19.65 70.2512 19.0616 69.6169 17.9013L68.2266 18.8557C69.045 20.4606 70.5766 21.2549 72.2134 21.2549H72.2101ZM79.7499 21.0098V14.93C79.7499 13.9331 80.0293 13.1159 80.588 12.4916C81.1533 11.8574 81.8962 11.5371 82.8164 11.5371C84.5124 11.5371 85.6595 12.7367 85.6595 14.9333V21.0131H87.477V14.4266C87.477 12.9426 87.0695 11.8247 86.2314 11.0304C85.3932 10.2362 84.3711 9.85045 83.1648 9.85045C81.6727 9.85045 80.3645 10.4813 79.6907 11.4783V5.62402H77.9323V21.0131H79.7532L79.7499 21.0098ZM89.1434 15.5609C89.1434 17.1658 89.6759 18.5288 90.7572 19.6271C91.8386 20.7254 93.2091 21.2746 94.8657 21.2746C96.5222 21.2746 97.8928 20.7254 98.9741 19.6271C100.055 18.5288 100.588 17.1658 100.588 15.5609C100.588 13.9755 100.029 12.6386 98.9511 11.5371C97.8632 10.4257 96.5189 9.87006 94.8624 9.87006C93.2059 9.87006 91.8419 10.4257 90.7539 11.5371C89.6759 12.6386 89.1401 13.9755 89.1401 15.5609H89.1434ZM98.7506 15.5609C98.7506 16.6788 98.3825 17.6365 97.6265 18.4275C96.8706 19.2185 95.9503 19.6075 94.8657 19.6075C93.781 19.6075 92.8608 19.2218 92.1048 18.4275C91.3488 17.6365 90.9807 16.6788 90.9807 15.5609C90.9807 14.4626 91.3488 13.5277 92.1048 12.7367C92.8608 11.9457 93.781 11.5371 94.8657 11.5371C95.9503 11.5371 96.8706 11.9424 97.6265 12.7367C98.3825 13.5277 98.7506 14.4659 98.7506 15.5609ZM108.042 9.87006C106.409 9.87006 105.078 10.5205 104.078 11.8019V10.1348H102.258V25.4846H104.078V19.4049C105.058 20.6437 106.369 21.2746 108.003 21.2746C109.577 21.2746 110.892 20.7287 111.927 19.6271C112.976 18.5158 113.502 17.1658 113.502 15.5805C113.502 13.9952 112.969 12.6517 111.927 11.5338C110.885 10.4159 109.597 9.86679 108.042 9.86679V9.87006ZM107.838 19.6075C106.672 19.6075 105.742 19.2316 105.038 18.4471C104.331 17.6659 103.996 16.6984 103.996 15.5609C103.996 14.443 104.345 13.4852 105.038 12.7138C105.751 11.9195 106.675 11.5338 107.838 11.5338C108.982 11.5338 109.899 11.9261 110.619 12.7138C111.329 13.4918 111.681 14.443 111.681 15.5609C111.681 16.6984 111.339 17.6594 110.619 18.4471C109.909 19.2251 108.982 19.6075 107.838 19.6075Z" fill="black"/>
</g>
<defs>
<clipPath id="clip0_5096_41">
<rect width="113" height="31.86" fill="white" transform="translate(0.5 0.0703125)"/>
</clipPath>
</defs>
</svg>
